<svg xmlns="http://www.w3.org/2000/svg" viewBox="0 0 1200 750" role="img" aria-labelledby="title">
  <title id="title">ASRTech automation dashboard</title>
  <rect width="1200" height="750" fill="#0f172a"/>
  <rect x="54" y="48" width="1092" height="654" rx="28" fill="#f8fafc"/>
  <rect x="54" y="48" width="220" height="654" rx="28" fill="#111827"/>
  <circle cx="105" cy="103" r="22" fill="#38bdf8"/>
  <rect x="142" y="90" width="82" height="12" rx="6" fill="#e2e8f0"/>
  <rect x="142" y="112" width="58" height="8" rx="4" fill="#64748b"/>
  <g fill="#334155"><rect x="84" y="174" width="160" height="38" rx="8"/><rect x="84" y="226" width="160" height="38" rx="8"/><rect x="84" y="278" width="160" height="38" rx="8"/></g>
  <text x="320" y="112" font-family="Arial,sans-serif" font-size="32" font-weight="700" fill="#0f172a">Automation overview</text>
  <text x="320" y="148" font-family="Arial,sans-serif" font-size="16" fill="#64748b">Monitor scheduled workflows and recent activity</text>
  <g><rect x="320" y="190" width="230" height="130" rx="18" fill="#eff6ff"/><rect x="574" y="190" width="230" height="130" rx="18" fill="#ecfdf5"/><rect x="828" y="190" width="230" height="130" rx="18" fill="#f5f3ff"/></g>
  <g font-family="Arial,sans-serif" fill="#0f172a"><text x="348" y="230" font-size="15">Active workflows</text><text x="348" y="282" font-size="40" font-weight="700">24</text><text x="602" y="230" font-size="15">Successful today</text><text x="602" y="282" font-size="40" font-weight="700">1,284</text><text x="856" y="230" font-size="15">Queued jobs</text><text x="856" y="282" font-size="40" font-weight="700">18</text></g>
  <rect x="320" y="354" width="738" height="292" rx="18" fill="#fff" stroke="#e2e8f0" stroke-width="2"/>
  <text x="348" y="396" font-family="Arial,sans-serif" font-size="20" font-weight="700" fill="#0f172a">Recent automation runs</text>
  <g fill="#e2e8f0"><rect x="348" y="426" width="668" height="1"/><rect x="348" y="492" width="668" height="1"/><rect x="348" y="558" width="668" height="1"/></g>
  <g font-family="Arial,sans-serif" font-size="15" fill="#334155"><text x="348" y="466">Invoice reminder workflow</text><text x="348" y="532">New service provisioning</text><text x="348" y="598">Overdue service notification</text></g>
  <g fill="#10b981"><circle cx="982" cy="460" r="8"/><circle cx="982" cy="526" r="8"/><circle cx="982" cy="592" r="8"/></g>
</svg>
